<?xml version="1.0" standalone="no"?>
<!DOCTYPE svg PUBLIC "-//W3C//DTD SVG 20010904//EN"
 "http://www.w3.org/TR/2001/REC-SVG-20010904/DTD/svg10.dtd">
<svg version="1.0" xmlns="http://www.w3.org/2000/svg"
 width="700.000000pt" height="700.000000pt" viewBox="0 0 700.000000 700.000000"
 preserveAspectRatio="xMidYMid meet">
<metadata>
Created by potrace 1.11, written by Peter Selinger 2001-2013
</metadata>
<g transform="translate(0.000000,700.000000) scale(0.100000,-0.100000)"
fill="#000000" stroke="none">
<path d="M3467 6090 c-27 -31 -47 -105 -47 -170 0 -65 20 -139 47 -170 l25
-30 819 0 c450 0 819 -3 819 -7 -1 -5 -268 -214 -594 -466 -327 -252 -608
-473 -626 -490 -67 -66 -92 -157 -70 -260 6 -33 22 -70 37 -87 l25 -30 1126 0
c870 1 1131 3 1143 13 40 30 54 79 54 187 0 108 -14 157 -54 187 -12 10 -211
13 -851 13 l-835 1 25 22 c14 12 291 227 614 477 359 277 601 470 618 494 45
63 61 132 48 208 -13 72 -32 113 -59 128 -13 7 -387 10 -1129 10 l-1110 0 -25
-30z"/>
<path d="M1326 4146 c-21 -8 -46 -22 -55 -31 -15 -14 -16 -164 -19 -1625 l-2
-1610 1973 0 c1419 0 1983 3 2006 11 38 13 61 54 61 107 0 43 -52 261 -110
461 -259 891 -636 1534 -1135 1937 -466 375 -925 588 -1490 694 -274 51 -407
61 -820 66 -306 4 -377 2 -409 -10z m949 -552 c227 -28 464 -91 675 -181 600
-256 1033 -732 1290 -1417 49 -132 130 -427 145 -529 l7 -47 -1298 2 -1299 3
-3 1092 -2 1092 57 4 c93 6 298 -3 428 -19z"/>
</g>
</svg>
